<svg xmlns="http://www.w3.org/2000/svg" viewBox="0 0 512 512" role="img" aria-labelledby="title description"><title id="title">RadPrompt App Icon</title><desc id="description">Dunkles RadPrompt Symbol mit Prompt-Board, leuchtender Radiologie-Matrix und Kopierimpuls.</desc><defs><linearGradient id="a" x1="64" y1="32" x2="448" y2="480" gradientUnits="userSpaceOnUse"><stop offset="0" stop-color="#151a27"/><stop offset=".38" stop-color="#080b12"/><stop offset="1" stop-color="#040509"/></linearGradient><radialGradient id="b" cx="0" cy="0" r="1" gradientUnits="userSpaceOnUse" gradientTransform="translate(142 96) rotate(48) scale(288 238)"><stop offset="0" stop-color="#78bdff" stop-opacity=".95"/><stop offset=".36" stop-color="#4b93ff" stop-opacity=".48"/><stop offset="1" stop-color="#4b93ff" stop-opacity="0"/></radialGradient><radialGradient id="c" cx="0" cy="0" r="1" gradientUnits="userSpaceOnUse" gradientTransform="translate(390 124) rotate(134) scale(244 226)"><stop offset="0" stop-color="#b994ff" stop-opacity=".82"/><stop offset=".42" stop-color="#8d66ff" stop-opacity=".34"/><stop offset="1" stop-color="#8d66ff" stop-opacity="0"/></radialGradient><linearGradient id="d" x1="126" y1="134" x2="386" y2="352" gradientUnits="userSpaceOnUse"><stop offset="0" stop-color="#91ccff"/><stop offset=".46" stop-color="#7b7cff"/><stop offset="1" stop-color="#51e0b6"/></linearGradient><linearGradient id="e" x1="292" y1="278" x2="436" y2="422" gradientUnits="userSpaceOnUse"><stop offset="0" stop-color="#d9ecff"/><stop offset=".46" stop-color="#91c7ff"/><stop offset="1" stop-color="#a98cff"/></linearGradient><filter id="f" x="-18%" y="-18%" width="136%" height="144%" color-interpolation-filters="sRGB"><feDropShadow dx="0" dy="22" stdDeviation="22" flood-color="#000" flood-opacity=".55"/><feDropShadow dx="0" dy="2" stdDeviation="2" flood-color="#fff" flood-opacity=".18"/></filter><clipPath id="g"><rect x="32" y="32" width="448" height="448" rx="112"/></clipPath></defs><g clip-path="url(#g)"><rect x="32" y="32" width="448" height="448" rx="112" fill="url(#a)"/><rect x="32" y="32" width="448" height="448" rx="112" fill="url(#b)"/><rect x="32" y="32" width="448" height="448" rx="112" fill="url(#c)"/><path d="M32 181H480M32 256H480M32 331H480M181 32V480M256 32V480M331 32V480" stroke="#fff" stroke-opacity=".035" stroke-width="2"/></g><rect x="32" y="32" width="448" height="448" rx="112" fill="none" stroke="#fff" stroke-opacity=".12" stroke-width="2"/><g filter="url(#f)"><rect x="86" y="78" width="340" height="356" rx="62" fill="#0b0f18" fill-opacity=".72"/><rect x="87.5" y="79.5" width="337" height="353" rx="60.5" fill="none" stroke="#fff" stroke-opacity=".2" stroke-width="3"/><rect x="126" y="126" width="108" height="82" rx="24" fill="url(#d)" fill-opacity=".92"/><rect x="259" y="126" width="108" height="82" rx="24" fill="#fff" fill-opacity=".075" stroke="#fff" stroke-opacity=".16" stroke-width="3"/><rect x="126" y="230" width="108" height="82" rx="24" fill="#fff" fill-opacity=".075" stroke="#fff" stroke-opacity=".16" stroke-width="3"/><rect x="259" y="230" width="108" height="82" rx="24" fill="#fff" fill-opacity=".075" stroke="#fff" stroke-opacity=".16" stroke-width="3"/><path d="M153 153H199C211 153 221 163 221 175V181C221 193 211 203 199 203H153Z" fill="#07101d" fill-opacity=".62"/><path d="M165 169H196C201 169 205 173 205 178S201 187 196 187H165Z" fill="#eaf6ff" fill-opacity=".94"/><path d="M278 154H348M278 177H330M278 196H352M145 259H215M145 282H199M278 258H348M278 281H330" stroke="#dfefff" stroke-linecap="round" stroke-width="8" stroke-opacity=".42"/></g><g filter="url(#f)"><rect x="303" y="320" width="91" height="82" rx="24" fill="#0e1524" fill-opacity=".88" stroke="#fff" stroke-opacity=".18" stroke-width="3"/><rect x="324" y="297" width="91" height="82" rx="24" fill="url(#e)" fill-opacity=".94" stroke="#fff" stroke-opacity=".58" stroke-width="3"/><path d="M349 327H390M349 350H381" stroke="#07101d" stroke-opacity=".58" stroke-width="9" stroke-linecap="round"/></g></svg>
