<svg xmlns="http://www.w3.org/2000/svg" viewBox="0 0 512 512" role="img" aria-labelledby="title description"><title id="title">RadPrompt Maskable App Icon</title><desc id="description">Maskierbares RadPrompt Symbol mit deckendem Hintergrund und zentraler Safe-Zone.</desc><defs><linearGradient id="a" x1="0" y1="0" x2="512" y2="512" gradientUnits="userSpaceOnUse"><stop offset="0" stop-color="#182033"/><stop offset=".32" stop-color="#0b0f18"/><stop offset=".68" stop-color="#06080e"/><stop offset="1" stop-color="#020308"/></linearGradient><radialGradient id="b" cx="0" cy="0" r="1" gradientUnits="userSpaceOnUse" gradientTransform="translate(134 110) rotate(44) scale(330 260)"><stop offset="0" stop-color="#75beff" stop-opacity=".9"/><stop offset=".34" stop-color="#4f9bff" stop-opacity=".42"/><stop offset="1" stop-color="#4f9bff" stop-opacity="0"/></radialGradient><radialGradient id="c" cx="0" cy="0" r="1" gradientUnits="userSpaceOnUse" gradientTransform="translate(405 108) rotate(132) scale(300 245)"><stop offset="0" stop-color="#b793ff" stop-opacity=".78"/><stop offset=".42" stop-color="#8b65ff" stop-opacity=".34"/><stop offset="1" stop-color="#8b65ff" stop-opacity="0"/></radialGradient><linearGradient id="d" x1="153" y1="147" x2="360" y2="338" gradientUnits="userSpaceOnUse"><stop offset="0" stop-color="#9ed5ff"/><stop offset=".42" stop-color="#7e87ff"/><stop offset="1" stop-color="#55e3bb"/></linearGradient><linearGradient id="e" x1="286" y1="294" x2="396" y2="402" gradientUnits="userSpaceOnUse"><stop offset="0" stop-color="#f0f8ff"/><stop offset=".5" stop-color="#91caff"/><stop offset="1" stop-color="#aa8bff"/></linearGradient><filter id="f" x="-18%" y="-18%" width="136%" height="140%"><feDropShadow dx="0" dy="24" stdDeviation="24" flood-color="#000" flood-opacity=".54"/><feDropShadow dx="0" dy="1.5" stdDeviation="2" flood-color="#fff" flood-opacity=".16"/></filter></defs><rect width="512" height="512" fill="url(#a)"/><rect width="512" height="512" fill="url(#b)"/><rect width="512" height="512" fill="url(#c)"/><path d="M0 128H512M0 192H512M0 256H512M0 320H512M0 384H512M128 0V512M192 0V512M256 0V512M320 0V512M384 0V512" stroke="#fff" stroke-opacity=".035" stroke-width="2"/><g filter="url(#f)"><rect x="112" y="96" width="288" height="320" rx="70" fill="#0b0f18" fill-opacity=".82"/><rect x="114" y="98" width="284" height="316" rx="68" fill="none" stroke="#fff" stroke-opacity=".2" stroke-width="4"/><rect x="148" y="138" width="92" height="72" rx="24" fill="url(#d)" fill-opacity=".96"/><rect x="272" y="138" width="92" height="72" rx="24" fill="#fff" fill-opacity=".075" stroke="#fff" stroke-opacity=".18" stroke-width="3"/><rect x="148" y="232" width="92" height="72" rx="24" fill="#fff" fill-opacity=".075" stroke="#fff" stroke-opacity=".18" stroke-width="3"/><rect x="272" y="232" width="92" height="72" rx="24" fill="#fff" fill-opacity=".075" stroke="#fff" stroke-opacity=".18" stroke-width="3"/><path d="M171 161H206C216.5 161 225 169.5 225 180V185C225 195.5 216.5 204 206 204H171Z" fill="#07101d" fill-opacity=".66"/><path d="M184 176H205C209 176 212.5 179.4 212.5 183.5S209 191 205 191H184Z" fill="#eff8ff" fill-opacity=".96"/><path d="M290 163H345M290 184H332M290 201H350M166 260H220M166 281H207M290 260H344M290 281H330" stroke="#dfefff" stroke-linecap="round" stroke-width="8" stroke-opacity=".42"/></g><g filter="url(#f)"><rect x="291" y="322" width="72" height="66" rx="22" fill="#0d1423" fill-opacity=".9" stroke="#fff" stroke-opacity=".18" stroke-width="3"/><rect x="309" y="303" width="72" height="66" rx="22" fill="url(#e)" fill-opacity=".98" stroke="#fff" stroke-opacity=".58" stroke-width="3"/><path d="M329 328H361M329 348H354" stroke="#07101d" stroke-opacity=".55" stroke-width="8" stroke-linecap="round"/></g><circle cx="256" cy="256" r="203.5" fill="none" stroke="#fff" stroke-opacity=".025" stroke-width="1"/></svg>
