<svg xmlns="http://www.w3.org/2000/svg" viewBox="0 0 512 512">
  <defs>
    <linearGradient id="bg" x1="64" y1="28" x2="456" y2="488" gradientUnits="userSpaceOnUse">
      <stop offset="0" stop-color="#2b3242"/>
      <stop offset=".28" stop-color="#10141d"/>
      <stop offset=".68" stop-color="#07090d"/>
      <stop offset="1" stop-color="#171b25"/>
    </linearGradient>
    <linearGradient id="glass" x1="94" y1="62" x2="422" y2="444" gradientUnits="userSpaceOnUse">
      <stop offset="0" stop-color="#ffffff" stop-opacity=".34"/>
      <stop offset=".17" stop-color="#d9edff" stop-opacity=".18"/>
      <stop offset=".52" stop-color="#6e84a5" stop-opacity=".08"/>
      <stop offset="1" stop-color="#ffffff" stop-opacity=".12"/>
    </linearGradient>
    <linearGradient id="edge" x1="82" y1="76" x2="430" y2="440" gradientUnits="userSpaceOnUse">
      <stop offset="0" stop-color="#ffffff" stop-opacity=".72"/>
      <stop offset=".22" stop-color="#8bd0ff" stop-opacity=".44"/>
      <stop offset=".52" stop-color="#9c7dff" stop-opacity=".2"/>
      <stop offset=".78" stop-color="#5eead4" stop-opacity=".28"/>
      <stop offset="1" stop-color="#ffffff" stop-opacity=".48"/>
    </linearGradient>
    <linearGradient id="rgrad" x1="152" y1="130" x2="360" y2="388" gradientUnits="userSpaceOnUse">
      <stop offset="0" stop-color="#ffffff"/>
      <stop offset=".24" stop-color="#daf0ff"/>
      <stop offset=".52" stop-color="#78c8ff"/>
      <stop offset=".78" stop-color="#b59cff"/>
      <stop offset="1" stop-color="#5eead4"/>
    </linearGradient>
    <linearGradient id="buttonA" x1="118" y1="342" x2="394" y2="432" gradientUnits="userSpaceOnUse">
      <stop offset="0" stop-color="#72bfff" stop-opacity=".54"/>
      <stop offset=".44" stop-color="#9c7dff" stop-opacity=".34"/>
      <stop offset="1" stop-color="#5eead4" stop-opacity=".44"/>
    </linearGradient>
    <radialGradient id="orbA" cx="0" cy="0" r="1" gradientUnits="userSpaceOnUse" gradientTransform="translate(142 110) rotate(44) scale(240)">
      <stop offset="0" stop-color="#72bfff" stop-opacity=".62"/>
      <stop offset=".42" stop-color="#72bfff" stop-opacity=".18"/>
      <stop offset="1" stop-color="#72bfff" stop-opacity="0"/>
    </radialGradient>
    <radialGradient id="orbB" cx="0" cy="0" r="1" gradientUnits="userSpaceOnUse" gradientTransform="translate(382 104) rotate(126) scale(214)">
      <stop offset="0" stop-color="#9c7dff" stop-opacity=".56"/>
      <stop offset=".46" stop-color="#9c7dff" stop-opacity=".14"/>
      <stop offset="1" stop-color="#9c7dff" stop-opacity="0"/>
    </radialGradient>
    <radialGradient id="orbC" cx="0" cy="0" r="1" gradientUnits="userSpaceOnUse" gradientTransform="translate(360 390) rotate(18) scale(198)">
      <stop offset="0" stop-color="#5eead4" stop-opacity=".38"/>
      <stop offset=".46" stop-color="#5eead4" stop-opacity=".1"/>
      <stop offset="1" stop-color="#5eead4" stop-opacity="0"/>
    </radialGradient>
    <filter id="shadow" x="-20%" y="-20%" width="140%" height="145%" color-interpolation-filters="sRGB">
      <feDropShadow dx="0" dy="24" stdDeviation="24" flood-color="#000000" flood-opacity=".44"/>
      <feDropShadow dx="0" dy="2" stdDeviation="2" flood-color="#000000" flood-opacity=".35"/>
    </filter>
    <filter id="softGlow" x="-60%" y="-60%" width="220%" height="220%" color-interpolation-filters="sRGB">
      <feGaussianBlur stdDeviation="10" result="blur"/>
      <feColorMatrix in="blur" type="matrix" values="0 0 0 0 0.45 0 0 0 0 0.75 0 0 0 0 1 0 0 0 .56 0" result="glow"/>
      <feMerge>
        <feMergeNode in="glow"/>
        <feMergeNode in="SourceGraphic"/>
      </feMerge>
    </filter>
    <filter id="inner" x="-8%" y="-8%" width="116%" height="116%" color-interpolation-filters="sRGB">
      <feGaussianBlur in="SourceAlpha" stdDeviation="5" result="blur"/>
      <feOffset dx="0" dy="5" result="offset"/>
      <feComposite in="offset" in2="SourceAlpha" operator="arithmetic" k2="-1" k3="1" result="innerShadow"/>
      <feColorMatrix in="innerShadow" type="matrix" values="0 0 0 0 0.02 0 0 0 0 0.03 0 0 0 0 0.05 0 0 0 .62 0"/>
      <feBlend in2="SourceGraphic" mode="multiply"/>
    </filter>
    <clipPath id="clip">
      <rect x="48" y="48" width="416" height="416" rx="104" ry="104"/>
    </clipPath>
    <mask id="safeMask" maskUnits="userSpaceOnUse" x="0" y="0" width="512" height="512">
      <rect width="512" height="512" fill="#000"/>
      <rect x="48" y="48" width="416" height="416" rx="104" ry="104" fill="#fff"/>
    </mask>
  </defs>
  <rect width="512" height="512" fill="#050608"/>
  <g filter="url(#shadow)">
    <rect x="48" y="48" width="416" height="416" rx="104" ry="104" fill="url(#bg)"/>
    <rect x="49.5" y="49.5" width="413" height="413" rx="102.5" ry="102.5" fill="none" stroke="url(#edge)" stroke-width="3"/>
  </g>
  <g clip-path="url(#clip)">
    <rect x="48" y="48" width="416" height="416" rx="104" ry="104" fill="url(#orbA)"/>
    <rect x="48" y="48" width="416" height="416" rx="104" ry="104" fill="url(#orbB)"/>
    <rect x="48" y="48" width="416" height="416" rx="104" ry="104" fill="url(#orbC)"/>
    <path d="M76 84c0-8 6-14 14-14h256c55 0 100 45 100 100v257c0 8-6 14-14 14H166c-50 0-90-40-90-90V84Z" fill="url(#glass)" opacity=".45"/>
    <path d="M98 86c18-18 42-28 68-28h174c53 0 96 43 96 96v76c-34-50-88-89-152-111-64-21-130-23-186-33Z" fill="#ffffff" opacity=".08"/>
    <path d="M66 339c87 48 172 60 258 34 50-15 89-39 126-72v118c0 18-15 33-33 33H150c-46 0-84-37-84-84v-29Z" fill="#000000" opacity=".18"/>
    <g opacity=".2">
      <path d="M112 112h288" stroke="#ffffff" stroke-width="2" stroke-linecap="round"/>
      <path d="M112 154h288" stroke="#ffffff" stroke-width="1.5" stroke-linecap="round"/>
      <path d="M112 196h288" stroke="#ffffff" stroke-width="1.5" stroke-linecap="round"/>
      <path d="M112 238h288" stroke="#ffffff" stroke-width="1.5" stroke-linecap="round"/>
      <path d="M112 280h288" stroke="#ffffff" stroke-width="1.5" stroke-linecap="round"/>
      <path d="M112 322h288" stroke="#ffffff" stroke-width="1.5" stroke-linecap="round"/>
      <path d="M112 364h288" stroke="#ffffff" stroke-width="1.5" stroke-linecap="round"/>
      <path d="M112 406h288" stroke="#ffffff" stroke-width="2" stroke-linecap="round"/>
      <path d="M112 112v294" stroke="#ffffff" stroke-width="2" stroke-linecap="round"/>
      <path d="M154 112v294" stroke="#ffffff" stroke-width="1.5" stroke-linecap="round"/>
      <path d="M196 112v294" stroke="#ffffff" stroke-width="1.5" stroke-linecap="round"/>
      <path d="M238 112v294" stroke="#ffffff" stroke-width="1.5" stroke-linecap="round"/>
      <path d="M280 112v294" stroke="#ffffff" stroke-width="1.5" stroke-linecap="round"/>
      <path d="M322 112v294" stroke="#ffffff" stroke-width="1.5" stroke-linecap="round"/>
      <path d="M364 112v294" stroke="#ffffff" stroke-width="1.5" stroke-linecap="round"/>
      <path d="M406 112v294" stroke="#ffffff" stroke-width="2" stroke-linecap="round"/>
    </g>
    <g filter="url(#softGlow)">
      <path d="M169 126h106c39 0 69 10 90 30 20 20 30 45 30 76 0 25-6 47-19 65-13 18-32 31-56 39l78 112h-82l-70-101h-8v101h-69V126Zm69 59v106h34c18 0 32-5 41-15 9-10 14-23 14-39 0-17-5-30-14-39-10-9-24-13-43-13h-32Z" fill="#061018" opacity=".68"/>
      <path d="M153 110h106c39 0 69 10 90 30 20 20 30 45 30 76 0 25-6 47-19 65-13 18-32 31-56 39l78 112h-82l-70-101h-8v101h-69V110Zm69 59v106h34c18 0 32-5 41-15 9-10 14-23 14-39 0-17-5-30-14-39-10-9-24-13-43-13h-32Z" fill="url(#rgrad)"/>
      <path d="M153 110h106c39 0 69 10 90 30 20 20 30 45 30 76 0 25-6 47-19 65-13 18-32 31-56 39l78 112h-82l-70-101h-8v101h-69V110Zm69 59v106h34c18 0 32-5 41-15 9-10 14-23 14-39 0-17-5-30-14-39-10-9-24-13-43-13h-32Z" fill="none" stroke="#ffffff" stroke-opacity=".28" stroke-width="3" stroke-linejoin="round"/>
    </g>
    <g filter="url(#inner)">
      <rect x="116" y="344" width="58" height="42" rx="15" fill="url(#buttonA)" opacity=".82"/>
      <rect x="188" y="344" width="58" height="42" rx="15" fill="url(#buttonA)" opacity=".72"/>
      <rect x="260" y="344" width="58" height="42" rx="15" fill="url(#buttonA)" opacity=".78"/>
      <rect x="332" y="344" width="58" height="42" rx="15" fill="url(#buttonA)" opacity=".68"/>
      <rect x="116" y="400" width="58" height="42" rx="15" fill="#ffffff" opacity=".09"/>
      <rect x="188" y="400" width="58" height="42" rx="15" fill="#ffffff" opacity=".07"/>
      <rect x="260" y="400" width="58" height="42" rx="15" fill="#ffffff" opacity=".08"/>
      <rect x="332" y="400" width="58" height="42" rx="15" fill="#ffffff" opacity=".06"/>
      <rect x="118" y="346" width="54" height="38" rx="13" fill="none" stroke="#ffffff" stroke-opacity=".28" stroke-width="2"/>
      <rect x="190" y="346" width="54" height="38" rx="13" fill="none" stroke="#ffffff" stroke-opacity=".22" stroke-width="2"/>
      <rect x="262" y="346" width="54" height="38" rx="13" fill="none" stroke="#ffffff" stroke-opacity=".25" stroke-width="2"/>
      <rect x="334" y="346" width="54" height="38" rx="13" fill="none" stroke="#ffffff" stroke-opacity=".2" stroke-width="2"/>
      <circle cx="145" cy="365" r="6" fill="#ffffff" opacity=".78"/>
      <circle cx="217" cy="365" r="6" fill="#ffffff" opacity=".58"/>
      <circle cx="289" cy="365" r="6" fill="#ffffff" opacity=".66"/>
      <circle cx="361" cy="365" r="6" fill="#ffffff" opacity=".54"/>
    </g>
    <path d="M112 78h226c53 0 96 43 96 96v48" fill="none" stroke="#ffffff" stroke-width="2" stroke-linecap="round" opacity=".18"/>
    <path d="M84 358c0 43 35 78 78 78h244" fill="none" stroke="#ffffff" stroke-width="2" stroke-linecap="round" opacity=".11"/>
  </g>
  <rect x="48" y="48" width="416" height="416" rx="104" ry="104" fill="none" stroke="#ffffff" stroke-opacity=".18" stroke-width="1.5"/>
  <rect x="71" y="71" width="370" height="370" rx="82" ry="82" fill="none" stroke="#ffffff" stroke-opacity=".08" stroke-width="1"/>
</svg>