<svg xmlns="http://www.w3.org/2000/svg" viewBox="0 0 512 512"><defs><linearGradient id="a" x1="64" y1="38" x2="456" y2="474" gradientUnits="userSpaceOnUse"><stop stop-color="#2f374a"/><stop offset=".42" stop-color="#0b101a"/><stop offset="1" stop-color="#121826"/></linearGradient><linearGradient id="b" x1="128" y1="92" x2="388" y2="430" gradientUnits="userSpaceOnUse"><stop stop-color="#fff"/><stop offset=".35" stop-color="#72bfff"/><stop offset=".72" stop-color="#a78bfa"/><stop offset="1" stop-color="#5eead4"/></linearGradient><radialGradient id="c" cx="0" cy="0" r="1" gradientUnits="userSpaceOnUse" gradientTransform="translate(142 108) rotate(46) scale(240)"><stop stop-color="#72bfff" stop-opacity=".55"/><stop offset="1" stop-color="#72bfff" stop-opacity="0"/></radialGradient><radialGradient id="d" cx="0" cy="0" r="1" gradientUnits="userSpaceOnUse" gradientTransform="translate(380 392) rotate(20) scale(210)"><stop stop-color="#5eead4" stop-opacity=".36"/><stop offset="1" stop-color="#5eead4" stop-opacity="0"/></radialGradient><filter id="s" x="-20%" y="-20%" width="140%" height="140%"><feDropShadow dx="0" dy="22" stdDeviation="22" flood-color="#000" flood-opacity=".42"/></filter></defs><rect width="512" height="512" fill="#05070b"/><g filter="url(#s)"><rect x="48" y="48" width="416" height="416" rx="104" fill="url(#a)"/><rect x="49.5" y="49.5" width="413" height="413" rx="102.5" fill="none" stroke="rgba(255,255,255,.42)" stroke-width="3"/></g><rect x="48" y="48" width="416" height="416" rx="104" fill="url(#c)"/><rect x="48" y="48" width="416" height="416" rx="104" fill="url(#d)"/><path d="M104 110h304M104 156h304M104 202h304M104 248h304M104 294h304M104 340h304M104 386h304M110 104v304M156 104v304M202 104v304M248 104v304M294 104v304M340 104v304M386 104v304" stroke="#fff" stroke-opacity=".15" stroke-width="2" stroke-linecap="round"/><path d="M151 111h108c38 0 68 10 88 29 21 20 31 45 31 76 0 25-7 47-20 65-13 18-32 31-57 38l80 113h-82l-70-101h-9v101h-69V111Zm69 59v106h34c18 0 32-5 42-15 9-10 14-23 14-39 0-17-5-30-15-39-9-9-24-13-43-13h-32Z" fill="#061018" opacity=".6"/><path d="M144 104h108c38 0 68 10 88 29 21 20 31 45 31 76 0 25-7 47-20 65-13 18-32 31-57 38l80 113h-82l-70-101h-9v101h-69V104Zm69 59v106h34c18 0 32-5 42-15 9-10 14-23 14-39 0-17-5-30-15-39-9-9-24-13-43-13h-32Z" fill="url(#b)"/><g opacity=".74"><rect x="118" y="348" width="57" height="38" rx="14" fill="#72bfff" opacity=".45"/><rect x="188" y="348" width="57" height="38" rx="14" fill="#a78bfa" opacity=".38"/><rect x="258" y="348" width="57" height="38" rx="14" fill="#5eead4" opacity=".38"/><rect x="328" y="348" width="57" height="38" rx="14" fill="#ffd166" opacity=".32"/><circle cx="146.5" cy="367" r="5.5" fill="#fff"/><circle cx="216.5" cy="367" r="5.5" fill="#fff" opacity=".82"/><circle cx="286.5" cy="367" r="5.5" fill="#fff" opacity=".78"/><circle cx="356.5" cy="367" r="5.5" fill="#fff" opacity=".72"/></g></svg>
