<svg xmlns="http://www.w3.org/2000/svg" viewBox="0 0 512 512"><defs><linearGradient id="a" x1="70" y1="52" x2="444" y2="468" gradientUnits="userSpaceOnUse"><stop stop-color="#33445f"/><stop offset=".45" stop-color="#0b111d"/><stop offset="1" stop-color="#071015"/></linearGradient><linearGradient id="b" x1="138" y1="110" x2="374" y2="420" gradientUnits="userSpaceOnUse"><stop stop-color="#fff"/><stop offset=".38" stop-color="#69bdff"/><stop offset=".7" stop-color="#a78bfa"/><stop offset="1" stop-color="#5eead4"/></linearGradient><filter id="s" x="-30%" y="-30%" width="160%" height="170%"><feDropShadow dx="0" dy="24" stdDeviation="24" flood-opacity=".45"/><feDropShadow dx="0" dy="2" stdDeviation="2" flood-opacity=".32"/></filter></defs><rect width="512" height="512" fill="#05070b"/><g filter="url(#s)"><rect x="48" y="48" width="416" height="416" rx="104" fill="url(#a)"/><rect x="50" y="50" width="412" height="412" rx="102" fill="none" stroke="#fff" stroke-opacity=".22" stroke-width="4"/></g><path d="M94 94c38-28 88-40 151-36 82 5 143 40 183 102-78-43-152-62-221-57-44 4-82 15-113 32V94Z" fill="#fff" opacity=".09"/><path d="M155 110h111c39 0 70 10 92 31 21 20 32 47 32 79 0 27-7 50-21 68-14 19-34 32-60 40l80 114h-85l-71-103h-9v103h-69V110Zm69 59v111h36c19 0 34-5 44-16 10-10 15-24 15-41 0-18-5-31-15-40-10-9-25-14-45-14h-35Z" fill="url(#b)"/><g opacity=".72"><rect x="108" y="356" width="60" height="42" rx="15" fill="#69bdff" opacity=".35"/><rect x="181" y="356" width="60" height="42" rx="15" fill="#a78bfa" opacity=".32"/><rect x="254" y="356" width="60" height="42" rx="15" fill="#5eead4" opacity=".32"/><rect x="327" y="356" width="60" height="42" rx="15" fill="#ffd166" opacity=".32"/></g></svg>
